<svg width="54" height="42" viewBox="0 0 54 42" fill="none" xmlns="http://www.w3.org/2000/svg">
<path fill-rule="evenodd" clip-rule="evenodd" d="M17.5286 5.24102C15.328 5.65606 12.772 6.43141 11.3633 6.95678C9.03865 7.82374 6.24697 9.0171 3.77824 10.3936C3.62465 10.4792 3.40459 10.5831 3.26371 10.6496C3.20856 10.6756 3.16554 10.6959 3.1434 10.7072C3.00161 10.7791 2.95528 10.82 2.92882 10.8502C2.8854 10.8997 2.70126 11.1447 2.62161 12.302C2.58262 12.8684 2.14594 13.3035 1.64626 13.2739C1.14657 13.2444 0.773093 12.7612 0.812076 12.1948C0.898793 10.9349 1.11994 10.0347 1.65689 9.42239C1.92061 9.12168 2.20823 8.9525 2.43619 8.83678C2.56695 8.77041 2.6517 8.73165 2.72531 8.69799C2.81553 8.65674 2.88901 8.62314 3.00996 8.5557C5.58213 7.12157 8.46091 5.89323 10.8353 5.00769C12.3208 4.45371 14.969 3.65025 17.2752 3.21532C18.419 2.99958 19.5382 2.86263 20.4043 2.91531C20.8286 2.94111 21.2765 3.01606 21.6501 3.2134C22.0486 3.42383 22.4769 3.84926 22.5177 4.5686C22.5401 4.96166 22.495 5.46773 22.4245 6.0001C22.3514 6.55195 22.2404 7.20476 22.1039 7.92278C21.8309 9.35959 21.4473 11.1039 21.0345 12.9098C20.77 14.0669 20.4941 15.247 20.2264 16.3925C19.8768 17.8883 19.5409 19.3252 19.262 20.5753C22.2796 20.2354 25.0689 19.8409 26.2297 19.4688C26.715 19.3132 27.2099 19.6292 27.335 20.1746C27.4601 20.7199 27.168 21.2882 26.6827 21.4438C25.2543 21.9018 21.9894 22.3363 18.8134 22.6837C18.8109 22.6964 18.8084 22.7091 18.8059 22.7217C18.6695 23.4166 18.493 24.4231 18.2864 25.6017C17.8985 27.8146 17.4041 30.6345 16.8685 33.1386C16.4541 35.0755 15.9966 36.9203 15.512 38.265C15.2734 38.9272 15.002 39.5438 14.6861 39.9948C14.4039 40.3977 13.8352 41.0068 13.0526 40.7962C12.415 40.6246 11.7768 40.1638 11.1943 39.6323C10.5935 39.084 9.96938 38.3825 9.35775 37.6155C8.13331 36.0799 6.90277 34.2102 5.93568 32.5906C5.76823 32.3102 5.60209 32.0343 5.43254 31.7537C4.96146 30.974 3.92433 29.2138 3.10352 27.5015C2.69592 26.6512 2.32079 25.7701 2.10122 25.0067C1.99235 24.6281 1.90657 24.2278 1.89132 23.8467C1.87699 23.4884 1.91808 22.9639 2.24709 22.5312C2.40426 22.3244 2.59269 22.2199 2.683 22.1739C2.79425 22.1172 2.90949 22.0754 3.01206 22.0435C3.21873 21.9793 3.46487 21.9276 3.72105 21.8842C4.23865 21.7964 4.89597 21.7262 5.57634 21.6698C6.94238 21.5565 8.47563 21.4928 9.335 21.4632C9.78502 21.4476 10.2199 21.4263 10.6605 21.3909C11.867 21.2941 14.527 21.072 17.3574 20.7803C17.6686 19.3541 18.0706 17.634 18.4862 15.856C18.7513 14.7217 19.0219 13.5638 19.278 12.4436C19.6896 10.6429 20.0653 8.93319 20.3299 7.5406C20.4622 6.84393 20.5645 6.23821 20.6297 5.74669C20.6701 5.44163 20.6929 5.20389 20.7027 5.02756C20.6039 5.00242 20.4599 4.97835 20.2606 4.96622C19.5981 4.92593 18.6382 5.03176 17.5286 5.24102ZM16.9284 22.8815C14.2894 23.1475 11.8759 23.3487 10.7426 23.4396C10.2694 23.4776 9.80842 23.5 9.34378 23.5161C8.49136 23.5455 6.98916 23.6081 5.66271 23.7182C4.99683 23.7734 4.39364 23.8391 3.94481 23.9152C3.86853 23.9281 3.79942 23.9409 3.73735 23.9534C3.75705 24.0561 3.78654 24.1799 3.82857 24.326C3.99806 24.9154 4.31282 25.6706 4.70403 26.4867C5.48081 28.1072 6.47691 29.7999 6.93922 30.565C7.10975 30.8473 7.27785 31.1264 7.44776 31.411C8.3862 32.9826 9.56655 34.7726 10.7192 36.2181C11.2962 36.9416 11.8521 37.5611 12.3556 38.0205C12.7438 38.3748 13.0591 38.595 13.2971 38.712C13.4426 38.4929 13.6262 38.1077 13.8338 37.5316C14.2631 36.3403 14.6945 34.6229 15.105 32.7041C15.6368 30.2178 16.103 27.5535 16.4828 25.3824C16.6483 24.4366 16.7974 23.5845 16.9284 22.8815ZM13.185 38.8549C13.185 38.8542 13.1898 38.8491 13.199 38.842C13.1895 38.8521 13.1849 38.8556 13.185 38.8549ZM3.70554 23.6375C3.7057 23.6377 3.70549 23.6413 3.70442 23.6479C3.70485 23.6407 3.70538 23.6374 3.70554 23.6375Z" fill="black" stroke="black" stroke-linecap="round"/>
<path fill-rule="evenodd" clip-rule="evenodd" d="M30.503 18.5056C30.9806 18.6528 31.2522 19.2132 31.1097 19.7572C30.4355 22.3314 29.9061 26.8086 30.0913 30.0692C30.1741 31.5262 30.3754 33.7477 30.7083 35.4623C30.836 36.1201 30.9726 36.6454 31.1069 37.0127C31.2389 36.7811 31.3902 36.4849 31.5583 36.1286C31.9583 35.2803 32.419 34.1642 32.8966 32.9317C33.844 30.4869 34.8303 27.6563 35.4997 25.7151C35.8735 24.3269 36.7004 22.5736 37.6136 21.3C38.0699 20.6636 38.609 20.0596 39.19 19.7109C39.4874 19.5324 39.8406 19.3937 40.225 19.3953C40.6289 19.3969 41.0073 19.5541 41.3222 19.858C41.9895 20.5021 42.4402 21.3234 42.814 22.3989C43.1808 23.4543 43.4927 24.8134 43.8539 26.5727C44.0824 27.6854 44.2447 28.8618 44.4008 29.9925C44.4864 30.6134 44.5702 31.2205 44.662 31.7958C44.7831 32.5545 44.9284 33.2452 45.0791 33.8047C45.0918 33.7629 45.1047 33.7201 45.1178 33.6764C45.3502 32.9002 45.6107 31.9248 45.8773 30.8656C46.4088 28.7532 46.9539 26.3477 47.3315 24.6127C47.5431 23.5517 48.0229 21.9055 48.5717 20.488C48.8468 19.7773 49.1541 19.0851 49.4716 18.5397C49.6297 18.268 49.8075 18.0027 50.0043 17.7844C50.1874 17.5813 50.4677 17.3278 50.8363 17.2376C51.3259 17.1179 51.7984 17.4673 51.8917 18.018C51.9788 18.5316 51.7053 19.0389 51.271 19.2021C51.2653 19.2079 51.2587 19.2149 51.2511 19.2234C51.1845 19.2972 51.0895 19.428 50.9714 19.6309C50.7365 20.0346 50.4778 20.6053 50.222 21.2659C49.7107 22.5866 49.2705 24.1114 49.0898 25.0214L49.0878 25.0317L49.0855 25.042C48.7051 26.7906 48.1531 29.2277 47.6122 31.3772C47.342 32.451 47.0721 33.4633 46.8258 34.286C46.5927 35.0645 46.3466 35.7951 46.1094 36.2118C45.9881 36.4248 45.7642 36.7245 45.3939 36.8468C44.9895 36.9803 44.646 36.8287 44.4325 36.663C44.2328 36.508 44.0889 36.3025 43.9885 36.1322C43.882 35.9516 43.788 35.7474 43.7045 35.5373C43.3777 34.7152 43.0901 33.489 42.8856 32.2079C42.7772 31.5279 42.6876 30.8756 42.6001 30.2375C42.4532 29.1668 42.3118 28.1362 42.0954 27.0825C41.733 25.3177 41.4459 24.0906 41.132 23.1873C40.8297 22.3174 40.5227 21.8098 40.1474 21.4413C40.1213 21.4485 40.0743 21.466 40.0039 21.5083C39.7487 21.6615 39.3984 22.0103 39.0038 22.5606C38.2246 23.6474 37.511 25.1804 37.2168 26.2949L37.206 26.3357L37.1923 26.3754C36.5227 28.3175 35.5173 31.2055 34.5466 33.7103C34.0621 34.9607 33.5792 36.1339 33.1459 37.0526C32.9299 37.5108 32.7175 37.9242 32.5159 38.2589C32.3347 38.5599 32.0937 38.9164 31.8012 39.1373C31.3948 39.4443 30.8972 39.5216 30.4381 39.2645C30.0646 39.0553 29.8245 38.6817 29.6708 38.3797C29.3526 37.7544 29.1213 36.8565 28.945 35.9485C28.5843 34.0903 28.3756 31.7534 28.2903 30.252C28.0905 26.7369 28.6487 22.0173 29.3803 19.2241C29.5228 18.68 30.0254 18.3584 30.503 18.5056ZM51.2964 19.1786C51.2964 19.1788 51.2948 19.1801 51.2916 19.1824C51.2948 19.1797 51.2964 19.1785 51.2964 19.1786ZM45.5274 35.0153C45.5274 35.0153 45.5272 35.0151 45.5269 35.0146C45.5273 35.0151 45.5275 35.0153 45.5274 35.0153Z" fill="black" stroke="black" stroke-linecap="round"/>
</svg>
