<svg width="100%" height="auto" viewBox="0 0 123 42" fill="none" xmlns="http://www.w3.org/2000/svg">
    <path class="anim-path" d="M111.299 7.85082C94.7075 3.70303 77.0021 2.756 59.9577 2.09764C51.3068 1.76348 42.9969 1.76562 34.3811 2.34777C28.6369 2.73589 23 3.31697 17.8094 5.91225C11.1796 9.22715 1.64109 15.4289 1.0189 23.8284C0.788548 26.9381 2.6948 28.939 5.05238 30.7072C10.3139 34.6533 16.2345 37.1672 22.6871 38.2426C34.0844 40.1422 45.6304 39.9311 57.1437 39.9311C67.1506 39.9311 76.9995 40.2386 87.0352 39.806C98.1871 39.3253 112.308 38.231 119.741 28.6748C124.327 22.7788 119.934 16.7154 115.551 12.6347C110.871 8.2775 105.449 6.34519 99.3545 4.50522C97.5375 3.95669 95.771 3.46295 93.9453 2.97312C91.7616 2.38725 89.2386 0.561873 87.0977 1.09708" stroke="#EFE500" stroke-width="2" stroke-linecap="round"/>
</svg>
