<svg width="34" height="34" viewBox="0 0 34 34" fill="none" xmlns="http://www.w3.org/2000/svg">
<rect x="0.523438" y="0.522461" width="32.375" height="32.375" rx="9.1875" fill="url(#paint0_linear_165_16506)"/>
<rect x="0.523438" y="0.522461" width="32.375" height="32.375" rx="9.1875" stroke="url(#paint1_linear_165_16506)" stroke-width="0.375"/>
<path fill-rule="evenodd" clip-rule="evenodd" d="M17.5171 6.33453C17.543 6.2774 17.6263 6.28446 17.6422 6.34515L19.2712 12.5474C19.2748 12.561 19.2825 12.5731 19.2934 12.582L24.427 16.7895C24.462 16.8181 24.4589 16.8724 24.421 16.897L24.1014 17.1041L14.47 12.5511L14.7861 12.3289C14.7958 12.322 14.8036 12.3127 14.8085 12.3019L17.5171 6.33453ZM12.8421 13.6953L23.2045 17.6854L18.8506 20.5071C18.839 20.5146 18.8301 20.5255 18.825 20.5383L17.8881 22.8784L14.7271 21.353L14.3628 20.2855C14.3591 20.2745 14.3526 20.2647 14.3439 20.257L9.60844 16.0685C9.57618 16.0399 9.57903 15.9888 9.61427 15.964L12.8421 13.6953ZM15.0024 22.1598L16.4045 26.2685C16.4245 26.3271 16.5065 26.3292 16.5295 26.2718L17.7362 23.2576L15.0024 22.1598Z" fill="white"/>
<defs>
<linearGradient id="paint0_linear_165_16506" x1="6.75732" y1="5.08496" x2="33.7573" y2="27.835" gradientUnits="userSpaceOnUse">
<stop offset="0.547968"/>
<stop offset="0.723056" stop-color="#323232"/>
<stop offset="0.795851"/>
</linearGradient>
<linearGradient id="paint1_linear_165_16506" x1="29.0859" y1="-0.54004" x2="1.46094" y2="32.71" gradientUnits="userSpaceOnUse">
<stop stop-color="#4D4D4D"/>
<stop offset="1" stop-color="#858585"/>
</linearGradient>
</defs>
</svg>
